<?xml version="1.0" standalone="no"?>
<!DOCTYPE svg PUBLIC "-//W3C//DTD SVG 20010904//EN"
 "http://www.w3.org/TR/2001/REC-SVG-20010904/DTD/svg10.dtd">
<svg version="1.0" xmlns="http://www.w3.org/2000/svg"
 width="4167.000000pt" height="4168.000000pt" viewBox="0 0 4167.000000 4168.000000"
 preserveAspectRatio="xMidYMid meet">

<g transform="translate(0.000000,4168.000000) scale(0.100000,-0.100000)"
fill="#000000" stroke="none">
<path d="M22630 28218 c-3 -3 -108 -8 -235 -12 -1268 -34 -2592 -324 -3762
-822 -1231 -525 -2385 -1318 -3333 -2290 -535 -549 -700 -1022 -544 -1567 64
-227 176 -452 377 -760 l90 -138 26 18 c50 32 176 106 255 149 l79 42 130
-211 c254 -416 503 -787 730 -1086 130 -173 330 -413 335 -402 1 4 -20 95 -47
202 -154 604 -260 1216 -291 1679 -15 226 -22 201 68 234 947 348 2088 590
3162 671 195 14 195 14 215 42 11 15 72 93 136 173 903 1133 2132 2105 3630
2874 626 321 1384 634 1939 801 199 60 192 56 150 66 -89 21 -543 111 -700
138 -343 60 -842 125 -1115 146 -44 4 -96 8 -115 10 -42 5 -315 23 -455 29
-173 9 -720 19 -725 14z m-2450 -1196 c-953 -746 -1641 -1369 -1953 -1768 -45
-58 -51 -62 -100 -68 -99 -13 -442 -78 -647 -122 -365 -79 -692 -171 -994
-278 l-130 -46 35 36 c19 19 108 100 199 179 1038 904 2211 1618 3250 1979
149 52 349 115 365 115 6 0 -6 -12 -25 -27z"/>
<path d="M26675 27613 c-413 -35 -858 -149 -1460 -373 -1446 -539 -2772 -1326
-3840 -2279 -179 -160 -564 -545 -724 -726 -158 -177 -403 -481 -553 -686 -93
-127 -108 -152 -108 -185 0 -49 -26 -346 -45 -524 -123 -1115 -422 -2258 -842
-3220 -78 -177 -260 -545 -337 -679 -36 -63 -65 -115 -63 -117 1 -1 84 -54
185 -118 l183 -116 59 63 c257 275 564 686 821 1099 242 388 384 642 819 1458
377 709 599 1102 828 1470 801 1285 1707 2232 2887 3019 856 571 1841 1045
3020 1456 121 42 221 78 223 79 19 19 -941 390 -996 384 -9 -1 -35 -3 -57 -5z"/>
<path d="M27365 26668 c-672 -253 -1129 -452 -1605 -696 -1265 -650 -2256
-1441 -3066 -2447 -106 -133 -144 -184 -119 -164 11 9 72 58 135 111 1510
1245 3340 1970 5704 2258 132 16 276 32 319 36 43 4 80 10 82 14 5 8 -153 149
-270 241 -179 141 -443 317 -690 461 -129 75 -398 219 -406 217 -2 -1 -40 -15
-84 -31z"/>
<path d="M19166 22936 c-13 -68 -116 -373 -174 -516 -208 -510 -469 -908 -826
-1266 -627 -626 -1480 -1017 -2531 -1159 -99 -13 -218 -27 -265 -30 -47 -4
-96 -9 -110 -12 -14 -3 -200 -6 -415 -8 -383 -3 -614 7 -808 35 -44 6 -81 9
-84 6 -7 -6 102 -56 243 -111 329 -129 771 -217 1219 -245 149 -9 601 -6 745
5 145 11 299 27 455 46 83 10 350 55 392 65 24 6 23 4 -20 -83 -140 -278 -433
-610 -775 -877 -34 -27 -60 -51 -58 -54 8 -7 439 211 611 309 826 472 1465
1085 1870 1793 328 575 520 1263 542 1949 6 180 2 226 -11 153z"/>
<path d="M8740 17313 c-84 -9 -212 -48 -298 -90 -216 -106 -326 -291 -316
-533 8 -218 95 -345 389 -568 224 -170 250 -199 234 -257 -13 -45 -43 -58
-144 -63 -106 -4 -248 21 -375 68 l-80 29 0 -254 0 -254 28 -15 c198 -102 674
-119 952 -34 166 51 310 158 370 278 88 175 76 405 -30 569 -62 96 -129 161
-300 291 -169 128 -250 207 -250 240 0 109 191 120 446 24 51 -19 95 -34 98
-34 3 0 6 114 6 254 l0 254 -52 21 c-70 28 -188 57 -283 70 -71 10 -316 13
-395 4z"/>
<path d="M21780 17305 c-178 -34 -320 -105 -417 -209 -99 -105 -143 -223 -143
-379 0 -235 92 -373 408 -611 213 -160 243 -197 211 -255 -46 -83 -322 -62
-581 44 -17 7 -18 -9 -18 -249 l0 -257 48 -20 c73 -31 235 -68 331 -74 47 -3
103 -8 124 -10 52 -7 292 12 376 30 348 73 531 264 532 557 2 241 -92 385
-411 628 -191 146 -220 176 -220 230 0 32 5 43 26 57 61 40 230 23 397 -38 45
-17 90 -33 100 -36 16 -5 17 10 15 253 l-3 259 -80 27 c-147 49 -218 59 -425
63 -141 3 -216 0 -270 -10z"/>
<path d="M30609 17304 c-229 -41 -426 -136 -577 -278 -244 -231 -349 -589
-276 -946 79 -385 386 -678 801 -764 233 -49 499 -36 715 35 518 169 791 666
663 1207 -95 397 -414 675 -858 747 -114 19 -364 18 -468 -1z m352 -568 c121
-26 202 -79 261 -171 111 -171 95 -421 -36 -572 -111 -127 -369 -169 -547 -90
-178 79 -269 280 -228 503 45 246 280 387 550 330z"/>
<path d="M32673 17306 c-179 -34 -306 -95 -411 -199 -105 -103 -152 -225 -152
-395 0 -230 86 -361 390 -592 227 -173 265 -220 225 -277 -52 -75 -329 -49
-577 52 -17 7 -18 -9 -18 -249 l0 -257 43 -18 c156 -67 404 -98 642 -80 278
21 482 99 601 232 86 96 124 203 124 352 0 235 -93 383 -380 600 -177 135
-230 182 -246 222 -52 124 152 151 416 53 47 -17 93 -34 103 -37 16 -5 17 10
15 253 l-3 259 -80 27 c-143 48 -217 59 -425 63 -139 3 -216 1 -267 -9z"/>
<path d="M17077 17303 l-267 -3 0 -995 0 -995 330 0 330 0 2 445 3 444 269
-444 269 -445 319 0 318 0 -2 998 -3 997 -325 0 -325 0 -5 -474 -5 -475 -273
477 -274 477 -46 -2 c-26 -2 -167 -4 -315 -5z"/>
<path d="M9750 16305 l0 -995 705 0 705 0 0 275 0 275 -352 0 c-194 0 -363 0
-375 0 -22 0 -23 3 -23 95 l0 95 28 0 c15 0 135 1 267 3 l240 2 0 255 0 255
-267 3 -268 2 0 95 0 95 365 0 365 0 0 270 0 270 -695 0 -695 0 0 -995z"/>
<path d="M11390 16305 l0 -995 331 0 c309 0 330 1 328 18 -6 67 3 642 11 642
8 0 183 -347 296 -587 l35 -73 359 0 c198 0 360 2 360 5 0 2 -88 172 -194 377
-107 205 -198 380 -201 389 -4 11 10 26 53 52 129 79 232 222 267 368 34 147
12 360 -53 489 -62 124 -204 227 -375 270 -139 35 -231 40 -729 40 l-488 0 0
-995z m905 453 c62 -33 95 -93 89 -163 -11 -120 -87 -169 -254 -163 l-81 3 0
163 c0 89 1 167 1 173 0 18 207 6 245 -13z"/>
<path d="M13280 16306 l0 -996 328 2 c282 3 327 5 328 18 1 8 2 135 3 283 l1
267 63 0 c118 0 302 21 406 45 299 72 478 234 548 495 24 91 24 311 0 400 -67
251 -245 393 -572 456 -76 15 -169 18 -597 21 l-508 5 0 -996z m931 447 c60
-27 91 -72 97 -138 6 -70 -11 -116 -57 -158 -47 -42 -107 -57 -226 -57 -74 0
-85 2 -85 18 -1 27 -1 336 -1 351 1 23 213 10 272 -16z"/>
<path d="M15180 16305 l0 -995 705 0 705 0 -2 273 -3 272 -377 3 -378 2 0 95
0 95 253 1 c138 1 260 1 270 0 16 -2 17 16 17 258 l0 261 -270 0 -270 0 0 95
0 95 365 0 365 0 0 270 0 270 -690 0 -690 0 0 -995z"/>
<path d="M18840 17030 l0 -270 265 0 265 0 0 -725 0 -725 325 0 325 0 0 725 0
725 265 0 265 0 0 270 0 270 -855 0 -855 0 0 -270z"/>
<path d="M22780 17030 l0 -270 265 0 265 0 0 -725 0 -725 325 0 325 0 0 725 0
725 265 0 265 0 0 270 0 270 -855 0 -855 0 0 -270z"/>
<path d="M24692 16633 c4 -647 5 -670 25 -745 68 -240 182 -392 372 -492 118
-62 231 -91 411 -106 217 -18 429 18 595 100 202 99 324 256 387 493 21 80 22
101 25 750 l4 667 -325 0 -325 0 -3 -617 -3 -618 -23 -57 c-90 -223 -433 -185
-477 52 -3 19 -8 44 -10 55 -2 11 -4 282 -4 603 l-1 582 -326 0 -325 0 3 -667z"/>
<path d="M26780 16304 l0 -995 508 4 c547 5 562 6 737 63 272 90 472 278 561
526 58 160 80 408 54 587 -65 444 -356 721 -836 795 -65 10 -218 14 -556 15
l-468 1 0 -996z m963 407 c58 -28 141 -101 173 -152 88 -140 88 -368 0 -508
-39 -61 -128 -135 -192 -160 -43 -17 -89 -24 -171 -28 l-113 -6 0 443 0 442
128 -4 c108 -3 134 -7 175 -27z"/>
<path d="M28870 16305 l0 -995 325 0 325 0 0 995 0 995 -325 0 -325 0 0 -995z"/>
<path d="M24373 14510 c-245 -64 -403 -261 -403 -502 0 -249 133 -434 370
-514 43 -15 84 -19 185 -19 138 0 186 11 290 63 67 33 175 144 208 212 103
215 65 463 -96 622 -135 133 -359 189 -554 138z m302 -215 c62 -30 118 -88
149 -154 32 -70 30 -216 -6 -291 -31 -67 -76 -113 -143 -148 -44 -24 -61 -27
-150 -26 -84 0 -108 3 -147 23 -64 31 -116 84 -147 150 -22 48 -26 69 -26 151
0 84 3 102 28 152 42 86 113 142 212 169 57 15 173 2 230 -26z"/>
<path d="M27512 14510 c-339 -89 -498 -439 -345 -758 33 -68 140 -180 203
-212 98 -50 150 -62 275 -66 138 -3 193 8 301 61 85 41 177 134 218 217 88
182 72 397 -40 555 -128 179 -382 263 -612 203z m303 -215 c62 -30 118 -88
149 -154 33 -71 30 -216 -5 -291 -31 -67 -75 -112 -143 -148 -45 -24 -62 -27
-151 -27 -113 0 -158 17 -228 84 -50 47 -73 93 -88 175 -28 150 37 295 158
356 67 34 99 40 181 35 53 -3 89 -11 127 -30z"/>
<path d="M12150 14000 l0 -510 380 0 380 0 0 95 0 95 -270 0 -270 0 0 415 0
415 -110 0 -110 0 0 -510z"/>
<path d="M13190 14160 c0 -326 1 -354 21 -412 39 -122 125 -204 259 -250 55
-19 86 -23 195 -23 110 0 141 4 197 23 118 41 206 123 251 234 21 50 22 70 25
416 l3 362 -110 0 -111 0 0 -321 c0 -200 -4 -337 -11 -364 -6 -24 -26 -62 -45
-83 -47 -55 -100 -75 -202 -74 -111 0 -179 32 -220 100 l-27 47 -3 348 -3 347
-109 0 -110 0 0 -350z"/>
<path d="M14476 14483 c10 -16 86 -122 169 -238 83 -115 154 -215 158 -222 5
-7 -65 -114 -177 -273 l-185 -260 132 0 132 0 22 33 c18 26 168 244 216 311
12 17 24 3 141 -159 71 -97 134 -179 140 -181 7 -3 67 -3 134 -2 l123 3 -180
250 c-99 138 -181 256 -181 263 0 11 221 327 328 470 l24 32 -130 0 -130 0
-95 -133 c-53 -73 -107 -152 -120 -176 l-25 -43 -127 176 -127 176 -130 0
-130 0 18 -27z"/>
<path d="M15780 14213 c0 -164 4 -334 10 -378 29 -232 202 -365 473 -365 227
1 387 98 452 275 17 44 19 91 23 408 l4 357 -111 0 -111 0 -1 -312 c0 -172 -3
-326 -5 -343 -15 -99 -87 -168 -192 -184 -121 -19 -225 14 -277 88 l-30 43 -3
354 -3 354 -114 0 -114 0 -1 -297z"/>
<path d="M17130 14000 l0 -510 110 0 110 0 0 185 0 185 93 0 92 0 115 -185
115 -185 123 0 c67 0 122 2 122 5 0 2 -55 92 -121 200 l-122 196 55 49 c77 68
103 129 103 240 0 105 -26 170 -91 230 -91 84 -167 100 -476 100 l-228 0 0
-510z m481 310 c19 -5 48 -23 64 -40 37 -38 45 -117 18 -170 -28 -54 -75 -71
-220 -77 l-123 -6 0 152 0 151 113 0 c61 0 128 -5 148 -10z"/>
<path d="M18152 14502 c1 -4 92 -140 201 -300 l198 -292 -1 -210 0 -211 112 3
113 3 3 208 2 208 122 177 c66 97 159 232 205 300 l84 122 -128 0 -129 0 -95
-137 c-52 -76 -112 -168 -133 -205 -21 -38 -39 -68 -41 -68 -2 0 -20 30 -40
68 -19 37 -77 128 -129 202 l-93 135 -128 3 c-70 1 -125 -1 -123 -6z"/>
<path d="M20000 14000 l0 -510 110 0 110 0 0 510 0 510 -110 0 -110 0 0 -510z"/>
<path d="M20620 14000 l0 -510 111 0 111 0 -4 335 c-2 230 0 332 7 322 5 -7
129 -158 274 -335 l263 -322 104 0 104 0 0 510 0 510 -111 0 -112 0 5 -335 c2
-184 1 -332 -2 -328 -4 5 -127 155 -274 336 l-267 327 -104 0 -105 0 0 -510z"/>
<path d="M22510 14000 l0 -511 113 3 112 3 3 225 c1 124 -2 281 -7 350 -5 69
-8 126 -7 127 1 1 19 -28 40 -65 21 -37 95 -158 165 -270 113 -181 129 -202
151 -200 19 2 45 36 132 173 60 94 127 204 150 245 23 41 47 83 53 92 9 13 10
-66 7 -332 l-5 -350 112 0 111 0 0 510 0 511 -117 -3 -116 -3 -156 -247 c-86
-136 -161 -252 -166 -257 -7 -7 -64 76 -174 249 l-163 260 -119 0 -119 0 0
-510z"/>
<path d="M25302 14413 c3 -97 3 -98 28 -100 14 0 98 -1 188 -2 l162 -1 0 -410
0 -410 110 0 110 0 0 410 0 410 185 0 185 0 0 100 0 100 -485 0 -486 0 3 -97z"/>
<path d="M26560 14000 l0 -510 110 0 110 0 0 510 0 510 -110 0 -110 0 0 -510z"/>
<path d="M28550 14000 l0 -510 111 0 112 0 -5 335 c-2 184 -1 332 2 328 4 -5
127 -155 274 -335 l267 -328 105 0 104 0 0 510 0 510 -111 0 -111 0 3 -335 c3
-225 1 -331 -6 -322 -5 7 -128 158 -273 335 l-263 322 -105 0 -104 0 0 -510z"/>
</g>
</svg>
