<?xml version="1.0" standalone="no"?>
<!DOCTYPE svg PUBLIC "-//W3C//DTD SVG 20010904//EN"
 "http://www.w3.org/TR/2001/REC-SVG-20010904/DTD/svg10.dtd">
<svg version="1.0" xmlns="http://www.w3.org/2000/svg"
 width="4167.000000pt" height="4167.000000pt" viewBox="0 0 4167.000000 4167.000000"
 preserveAspectRatio="xMidYMid meet">

<g transform="translate(0.000000,4167.000000) scale(0.100000,-0.100000)"
fill="#000000" stroke="none">
<path d="M22438 28205 c-2 -1 -79 -5 -172 -9 -184 -7 -231 -10 -476 -32 -2458
-216 -4671 -1255 -6440 -3024 -367 -367 -554 -668 -631 -1015 -8 -36 -14 -125
-14 -225 0 -137 4 -183 23 -268 61 -271 198 -562 424 -899 38 -57 71 -103 74
-103 3 0 45 24 92 53 140 87 263 150 271 141 4 -5 50 -79 101 -164 326 -543
669 -1038 957 -1382 68 -81 127 -149 131 -152 5 -3 -7 52 -25 122 -176 679
-291 1343 -319 1853 l-6 117 84 32 c396 151 1044 335 1548 439 181 37 528 101
628 115 23 4 118 17 210 31 264 39 633 78 852 90 l105 6 32 37 c17 20 85 105
151 187 1062 1334 2653 2487 4512 3272 362 153 974 373 1179 425 40 10 42 12
22 20 -80 29 -880 176 -1161 212 -63 9 -146 20 -185 25 -235 34 -723 75 -1080
91 -188 9 -878 13 -887 5z m-2219 -1159 c-2 -2 -101 -80 -219 -172 -753 -592
-1414 -1193 -1729 -1572 -52 -63 -103 -114 -115 -117 -11 -2 -93 -16 -181 -30
-552 -92 -1115 -235 -1561 -399 l-69 -26 60 56 c114 105 421 367 560 478 1031
825 2068 1410 3060 1727 171 55 204 64 194 55z"/>
<path d="M26506 27589 c-244 -32 -434 -75 -701 -156 -82 -25 -166 -50 -185
-55 -19 -6 -128 -44 -242 -84 -1497 -534 -2893 -1348 -3993 -2329 -161 -143
-633 -619 -769 -775 -158 -181 -324 -387 -488 -606 l-135 -181 -7 -114 c-9
-140 -11 -168 -42 -449 -126 -1157 -430 -2304 -871 -3290 -84 -187 -234 -486
-311 -620 -33 -58 -58 -108 -54 -112 24 -24 357 -228 367 -224 15 5 195 208
307 346 197 242 457 616 653 940 191 315 334 573 770 1390 667 1250 1043 1849
1573 2509 393 488 910 1005 1393 1392 1017 815 2242 1464 3739 1979 l224 78
-60 30 c-135 68 -396 171 -732 288 -209 73 -213 73 -436 43z"/>
<path d="M19161 22910 c-26 -104 -111 -351 -172 -503 -139 -343 -316 -651
-545 -947 -169 -218 -480 -517 -710 -682 -583 -418 -1309 -688 -2129 -792
-110 -14 -240 -28 -290 -31 -49 -4 -103 -9 -120 -11 -16 -2 -160 -5 -320 -8
-302 -4 -504 4 -739 29 -76 8 -148 15 -160 15 -20 0 -20 0 -1 -13 83 -56 461
-188 676 -236 383 -85 591 -105 1094 -106 370 0 504 6 705 31 201 24 298 38
420 59 79 14 145 23 148 20 9 -9 -69 -155 -138 -259 -38 -55 -104 -144 -148
-196 -104 -125 -361 -374 -489 -475 -56 -44 -100 -81 -98 -83 5 -6 373 176
517 256 536 297 940 600 1319 989 578 594 950 1294 1113 2099 53 260 90 617
84 804 l-3 95 -14 -55z"/>
<path d="M8755 17309 c-209 -28 -362 -94 -471 -203 -116 -116 -158 -221 -157
-401 0 -235 81 -357 399 -598 216 -163 249 -202 220 -259 -20 -39 -62 -52
-166 -52 -105 1 -212 21 -337 65 -45 16 -84 29 -87 29 -3 0 -6 -114 -6 -254
l0 -254 64 -26 c134 -53 250 -70 486 -70 185 0 229 3 318 22 279 61 441 180
514 378 32 88 32 283 0 373 -50 138 -149 254 -347 404 -229 173 -276 223 -261
282 10 39 58 58 147 57 105 -1 220 -30 382 -97 16 -7 17 9 17 249 l0 255 -27
15 c-45 22 -156 54 -250 71 -109 19 -345 27 -438 14z"/>
<path d="M21818 17304 c-115 -17 -249 -60 -326 -106 -77 -46 -171 -141 -209
-214 -49 -92 -66 -179 -60 -304 10 -226 87 -337 389 -566 220 -167 249 -199
234 -259 -20 -81 -247 -81 -489 -1 -58 20 -108 36 -111 36 -4 0 -6 -114 -6
-254 l0 -255 56 -20 c164 -62 300 -81 539 -77 197 4 284 17 420 64 209 73 340
204 384 387 17 69 15 218 -4 290 -41 155 -150 286 -385 463 -173 129 -231 187
-232 232 -2 81 106 105 291 64 76 -17 107 -26 199 -63 l52 -21 0 259 0 259
-77 26 c-117 38 -154 46 -281 62 -141 17 -255 17 -384 -2z"/>
<path d="M30672 17308 c-516 -65 -877 -408 -930 -883 -66 -581 301 -1040 900
-1129 559 -83 1071 165 1247 606 86 214 100 455 41 676 -100 366 -394 628
-800 712 -119 25 -338 34 -458 18z m361 -597 c187 -72 289 -267 257 -491 -14
-101 -57 -186 -124 -248 -92 -83 -179 -114 -326 -113 -251 0 -418 154 -437
400 -17 228 100 407 307 467 71 21 251 12 323 -15z"/>
<path d="M32735 17309 c-338 -46 -545 -198 -610 -450 -23 -88 -17 -260 13
-344 48 -132 136 -228 363 -401 224 -170 260 -212 229 -269 -18 -33 -54 -46
-144 -50 -101 -4 -212 16 -343 60 -55 19 -104 35 -107 35 -3 0 -6 -114 -6
-254 l0 -255 58 -21 c161 -61 298 -80 542 -75 153 3 203 8 291 28 135 32 238
75 312 130 100 76 152 150 187 265 19 61 21 90 18 185 -5 125 -22 188 -79 282
-47 79 -154 186 -279 280 -244 183 -292 233 -271 289 17 43 49 56 142 57 94 0
234 -31 333 -75 32 -14 60 -26 62 -26 2 0 4 116 4 259 l0 258 -93 31 c-51 17
-134 38 -183 47 -110 19 -345 27 -439 14z"/>
<path d="M9755 17288 c-3 -7 -4 -456 -3 -998 l3 -985 703 -3 702 -2 0 275 0
275 -375 0 -375 0 0 100 0 100 270 0 270 0 0 255 0 255 -270 0 -270 0 0 95 0
95 365 0 365 0 -2 273 -3 272 -688 3 c-545 2 -689 0 -692 -10z"/>
<path d="M11398 17294 c-5 -4 -8 -454 -8 -1001 l0 -993 328 2 327 3 2 325 c1
228 5 326 12 328 7 2 84 -144 173 -327 l162 -331 358 0 c197 0 358 3 358 6 0
7 -64 131 -281 545 -66 125 -119 231 -119 235 0 5 21 20 48 34 66 35 184 154
217 220 54 107 67 158 72 290 10 259 -65 427 -241 542 -67 43 -205 90 -316
108 -85 14 -1080 27 -1092 14z m912 -549 c49 -29 71 -72 72 -142 2 -108 -46
-156 -173 -173 -41 -5 -93 -10 -116 -10 l-43 0 0 176 0 176 113 -3 c90 -3 119
-8 147 -24z"/>
<path d="M13287 17293 c-4 -3 -7 -453 -7 -1000 l0 -993 328 2 327 3 0 287 0
288 110 0 c248 1 422 38 590 123 98 50 215 163 262 252 72 138 100 343 68 510
-61 327 -295 489 -755 525 -141 11 -913 14 -923 3z m899 -538 c82 -24 124 -83
124 -171 0 -60 -31 -118 -82 -151 -39 -26 -50 -28 -165 -32 -114 -3 -123 -2
-123 15 -1 67 -1 331 -1 342 1 18 184 16 247 -3z"/>
<path d="M15180 16300 l0 -1000 705 0 705 0 0 275 0 275 -380 0 -380 0 0 100
0 100 270 0 270 0 0 255 0 255 -270 0 -270 0 0 95 0 95 365 0 365 0 0 275 0
275 -690 0 -690 -1 0 -999z"/>
<path d="M16817 17293 c-9 -8 -9 -1956 -1 -1978 5 -13 48 -15 330 -15 l324 0
2 446 3 447 106 -174 c58 -96 180 -297 270 -446 l164 -273 315 3 315 2 3 998
2 997 -330 0 -330 0 -2 -475 -3 -476 -270 473 -271 473 -310 3 c-171 1 -313
-1 -317 -5z"/>
<path d="M18853 17293 c-10 -3 -13 -65 -13 -258 0 -139 3 -260 6 -269 5 -14
38 -16 265 -16 l259 0 0 -725 0 -725 325 0 325 0 0 725 0 725 265 0 265 0 -2
273 -3 272 -840 2 c-462 1 -846 -1 -852 -4z"/>
<path d="M22785 17287 c-3 -7 -4 -129 -3 -272 l3 -260 263 -3 262 -2 0 -725 0
-725 325 0 325 0 0 725 0 725 263 2 262 3 0 270 0 270 -848 3 c-679 2 -849 0
-852 -11z"/>
<path d="M24693 16632 c3 -653 3 -669 25 -752 13 -47 43 -128 69 -180 38 -80
59 -109 132 -181 71 -71 102 -94 181 -133 165 -81 339 -112 565 -103 471 21
758 250 830 664 12 70 15 201 15 720 l0 634 -325 -2 -325 -1 -1 -591 c0 -326
-3 -603 -5 -617 -29 -160 -106 -233 -240 -231 -92 1 -142 19 -190 66 -80 81
-78 60 -82 757 l-3 617 -325 0 -325 1 4 -668z"/>
<path d="M26788 17294 c-5 -4 -8 -455 -8 -1001 l0 -995 493 5 c538 5 572 8
752 68 310 104 508 314 592 625 24 90 27 116 27 294 1 219 -10 291 -69 437
-45 112 -109 205 -202 294 -99 94 -205 157 -341 202 -197 65 -235 69 -762 74
-261 3 -478 1 -482 -3z m954 -591 c135 -63 225 -192 237 -340 3 -43 3 -107 -1
-142 -16 -135 -110 -267 -233 -326 -54 -26 -73 -29 -185 -33 l-125 -4 0 442 0
442 120 -4 c109 -3 126 -7 187 -35z"/>
<path d="M28870 16300 l0 -1000 325 0 325 0 0 1000 0 1000 -325 0 -325 0 0
-1000z"/>
<path d="M24450 14519 c-229 -24 -431 -199 -470 -408 -59 -314 123 -583 430
-637 368 -65 670 171 670 522 0 148 -48 263 -149 365 -122 122 -291 177 -481
158z m221 -227 c64 -31 117 -86 148 -151 22 -47 26 -70 26 -146 0 -77 -4 -99
-29 -151 -46 -101 -120 -156 -232 -174 -107 -17 -233 20 -295 87 -89 95 -113
265 -55 387 38 78 95 132 172 161 61 23 207 16 265 -13z"/>
<path d="M27590 14519 c-232 -26 -424 -193 -469 -407 -25 -120 -5 -269 51
-375 161 -307 643 -370 898 -117 98 97 150 226 150 375 0 152 -43 258 -150
366 -121 122 -293 179 -480 158z m226 -230 c141 -68 206 -239 155 -406 -36
-120 -121 -193 -248 -213 -159 -26 -307 53 -358 192 -29 77 -27 205 4 275 27
60 100 134 157 158 89 37 207 35 290 -6z"/>
<path d="M12150 13995 l0 -515 378 2 377 3 0 95 0 95 -267 3 -268 2 0 409 c0
364 -2 410 -16 415 -9 3 -58 6 -110 6 l-94 0 0 -515z"/>
<path d="M13192 14143 c3 -357 4 -370 26 -425 61 -151 214 -245 412 -253 166
-7 305 39 395 129 106 106 117 164 113 591 l-3 320 -107 3 -107 3 -3 -348 -3
-348 -28 -47 c-18 -31 -44 -57 -75 -75 -43 -26 -56 -28 -147 -28 -114 0 -165
19 -208 77 -44 60 -47 83 -47 428 0 290 -2 329 -16 334 -9 3 -58 6 -110 6
l-95 0 3 -367z"/>
<path d="M14460 14504 c0 -4 79 -117 175 -251 107 -149 173 -249 168 -256 -4
-7 -84 -120 -178 -253 -95 -132 -175 -246 -179 -252 -5 -9 25 -12 123 -12
l129 0 104 148 c58 81 115 164 127 185 l23 37 17 -22 c10 -13 71 -96 135 -185
l117 -163 130 0 c71 0 129 3 129 6 0 3 -73 108 -163 232 -89 125 -172 241
-184 257 l-21 30 174 243 c96 133 174 247 174 253 0 6 -45 9 -122 7 l-123 -3
-67 -90 c-37 -49 -91 -127 -120 -172 -29 -45 -55 -82 -58 -82 -3 -1 -52 65
-110 146 -161 224 -129 201 -275 202 -69 1 -125 -1 -125 -5z"/>
<path d="M15784 14496 c-3 -8 -4 -167 -2 -353 4 -314 6 -343 26 -403 58 -175
218 -273 447 -274 55 0 125 6 155 13 176 43 289 157 319 321 5 31 9 197 8 380
l-2 325 -107 3 -107 3 -3 -343 c-3 -379 -4 -383 -69 -446 -85 -83 -285 -82
-377 2 -56 50 -57 54 -62 431 l-5 350 -108 3 c-88 2 -108 0 -113 -12z"/>
<path d="M17143 14504 c-10 -5 -13 -117 -13 -515 l0 -509 110 0 110 0 0 185 0
185 93 0 94 0 69 -110 c38 -60 91 -144 117 -185 l48 -75 121 0 c97 0 119 3
115 14 -3 7 -57 97 -121 200 -64 103 -116 190 -116 194 1 4 19 19 41 35 148
102 157 376 15 492 -91 74 -188 93 -471 94 -110 0 -206 -3 -212 -5z m494 -210
c52 -26 75 -73 70 -142 -7 -101 -67 -132 -251 -132 l-106 0 0 151 0 152 124
-5 c93 -4 135 -11 163 -24z"/>
<path d="M18150 14501 c0 -5 13 -26 28 -47 15 -21 104 -151 198 -289 l169
-250 5 -215 5 -215 110 0 110 0 2 203 c0 111 3 208 6 216 3 7 93 141 201 299
108 157 196 291 196 297 0 6 -44 10 -118 10 -101 0 -121 -3 -134 -17 -29 -34
-176 -252 -218 -322 -22 -39 -43 -71 -45 -71 -2 0 -21 30 -42 68 -20 37 -80
129 -132 205 l-96 137 -122 -1 c-68 0 -123 -4 -123 -8z"/>
<path d="M20007 14503 c-4 -3 -7 -235 -7 -515 l0 -508 110 0 110 0 0 515 0
515 -103 0 c-57 0 -107 -3 -110 -7z"/>
<path d="M20620 13995 l0 -515 111 0 111 0 -4 335 c-2 184 -3 335 -2 335 1 0
125 -151 275 -335 l274 -335 103 0 102 0 0 515 0 515 -111 0 -111 0 3 -335 c4
-309 3 -333 -12 -317 -9 9 -130 157 -269 327 -139 171 -258 313 -264 317 -6 4
-55 8 -108 8 l-98 0 0 -515z"/>
<path d="M22527 14503 c-16 -4 -17 -35 -15 -511 l3 -507 110 0 110 0 0 270 c0
149 -3 310 -7 360 l-7 89 63 -109 c34 -61 110 -184 167 -275 86 -136 108 -165
128 -165 19 0 41 29 127 165 58 91 130 211 162 267 31 57 59 103 62 103 3 0 2
-33 -1 -72 -3 -40 -7 -200 -8 -355 l-2 -283 111 0 110 0 0 515 0 515 -113 0
-113 0 -165 -260 c-90 -143 -167 -260 -170 -260 -4 0 -76 109 -160 243 -84
133 -159 250 -167 260 -13 14 -31 17 -111 16 -53 -1 -104 -3 -114 -6z"/>
<path d="M25307 14503 c-4 -3 -7 -48 -7 -100 l0 -93 190 0 190 0 0 -415 0
-415 110 0 110 0 0 415 0 415 185 0 186 0 -3 98 -3 97 -476 3 c-261 1 -479 -1
-482 -5z"/>
<path d="M26567 14503 c-4 -3 -7 -235 -7 -515 l0 -508 110 0 110 0 0 515 0
515 -103 0 c-57 0 -107 -3 -110 -7z"/>
<path d="M28550 13995 l0 -515 111 0 112 0 -5 335 c-2 184 -4 335 -3 335 1 0
125 -151 276 -335 l274 -335 103 0 102 0 0 515 0 516 -107 -3 -108 -3 0 -332
c0 -182 -2 -330 -6 -328 -3 2 -126 152 -275 334 l-269 331 -102 0 -103 0 0
-515z"/>
</g>
</svg>
